<?xml version="1.0" encoding="utf-8"?>
<!-- Generator: Adobe Illustrator 24.0.1, SVG Export Plug-In . SVG Version: 6.00 Build 0)  -->
<svg version="1.1" baseProfile="tiny" id="Calque_1"
	 xmlns="http://www.w3.org/2000/svg" xmlns:xlink="http://www.w3.org/1999/xlink" x="0px" y="0px" viewBox="0 0 85 2.8"
	 xml:space="preserve">
<g>
	<path fill="#060607" d="M85,1.5c0,0.1,0,0.1,0,0.2h-6.3C76.9,1.8,75,2,73.1,2.1c-2.6,0-5.3,0.1-7.9,0.1c-2,0-4.1,0-6.1,0
		c-2.2,0.1-4.5,0.1-6.7,0.2c-2.3,0.1-4.7,0.3-7,0.4c-1.7,0-3.3,0.1-5,0.1c-1.1,0-2.2-0.1-3.3-0.1c-2.8-0.1-5.7-0.2-8.5-0.3
		c-2.1,0-4.2,0-6.3,0c-1.7,0.1-3.3,0.2-5,0.3c-1.5-0.1-2.9-0.1-4.4-0.2c-0.7,0-1.4,0-2.2,0c-0.9,0-1.8,0-2.6,0
		C6.5,2.5,4.9,2.6,3.4,2.7c-0.1,0-0.1,0-0.2,0c-0.7,0-1.3,0-2,0c-1-0.3-1.5-1.4-1.1-2.3C0.3,0.1,0.8,0,1.1,0c0.7,0,1.4,0.2,2.1,0.3
		c1.3-0.1,2.6-0.2,3.9-0.2c0.2,0,0.3,0,0.4,0h0c1,0,2,0,3.1,0c0.8,0.1,1.6,0.1,2.4,0.2c1.4,0,2.8,0,4.1,0c1.7-0.1,3.3-0.1,5-0.2
		c2.1,0,4.2,0,6.3,0c1.9,0.2,3.7,0.4,5.6,0.5c1,0.1,2,0.1,2.9,0.1c1.1,0,2.2,0,3.3,0c1.7,0,3.3,0,5,0c2.3-0.1,4.7-0.2,7-0.4
		c2.3-0.1,4.5-0.1,6.8-0.2c2,0,4.1,0,6.1,0c2.6,0.1,5.2,0.1,7.9,0.2c1.9,0,3.8,0,5.7,0c1.4,0,2.9,0.1,4.3,0.1c0.6,0,1.3,0.2,1.9,0.3
		c0,0.1,0,0.2,0,0.3c-0.8,0.1-1.6,0.1-2.4,0.2v0.1C83.4,1.4,84.2,1.4,85,1.5z"/>
</g>
</svg>
