<?xml version="1.0" encoding="utf-8"?>
<!-- Generator: Adobe Illustrator 24.0.1, SVG Export Plug-In . SVG Version: 6.00 Build 0)  -->
<svg version="1.1" baseProfile="tiny" id="Calque_1"
	 xmlns="http://www.w3.org/2000/svg" xmlns:xlink="http://www.w3.org/1999/xlink" x="0px" y="0px" viewBox="0 0 85 4.5"
	 xml:space="preserve">
<g fill="#6e4ccc">
	<path d="M0,2c3.5,0,6.9,0.1,10.4,0C21.2,1.8,32,1.6,42.8,1.3C51.9,1,60.9,0.8,70,0c3.6-0.3,6.8,1.2,10.2,1.5
		c1.6,0.1,3.2,0.4,4.9,0.8c-1.8,0.2-3.6,0.4-5.4,0.8c-1.7,0.3-3.5,0.8-5.2,1.2c-0.8,0.2-1.6,0.3-2.3,0.2C63.1,4.1,54,3.6,44.9,3.3
		C36.1,3,27.2,2.8,18.3,2.7c-6.1-0.1-12.2,0-18.3,0C0,2.4,0,2.2,0,2z"/>
</g>
</svg>
