<?xml version="1.0" encoding="utf-8"?>
<!-- Generator: Adobe Illustrator 24.0.1, SVG Export Plug-In . SVG Version: 6.00 Build 0)  -->
<svg version="1.1" baseProfile="tiny" id="Calque_1"
	 xmlns="http://www.w3.org/2000/svg" xmlns:xlink="http://www.w3.org/1999/xlink" x="0px" y="0px" viewBox="0 0 85 2.8"
	 xml:space="preserve">
<path d="M0,2.6c-0.1-1.7,0.6-2.5,2.2-2.6C4.8,0,7.5,0,10.1,0c8.8,0.1,17.6,0.4,26.4,0.5c9.8,0,19.7-0.3,29.5-0.2
	c5.9,0,11.8,0.3,17.7,0.6c0.5,0,0.9,0.5,1.4,0.7c-0.4,0.2-0.9,0.7-1.3,0.7C72.4,3.4,61.1,2.4,49.8,2.3c-7.6,0-15.3-0.1-22.9-0.1
	C18.5,2.3,10,2.5,1.6,2.6C1.1,2.6,0.6,2.6,0,2.6z"/>
</svg>
