<?xml version="1.0" encoding="utf-8"?>
<!-- Generator: Adobe Illustrator 24.0.1, SVG Export Plug-In . SVG Version: 6.00 Build 0)  -->
<svg version="1.1" baseProfile="tiny" id="Calque_1"
	 xmlns="http://www.w3.org/2000/svg" xmlns:xlink="http://www.w3.org/1999/xlink" x="0px" y="0px" viewBox="0 0 143.2 154.1"
	 xml:space="preserve">
<g>
	<g>
		<path d="M120.2,14c-6.3,1.2-12.6,2.3-18.9,3.5v0C107.7,16.3,113.9,15.1,120.2,14z"/>
		<path d="M143.2,3.2c0-1.1-1.2-2.1-1.9-3.2c-6.8,1-13.5,2-20.3,3c-5.6,1-11.2,2.1-16.8,3.1c-3.3,0.7-6.6,1.5-10,2.2
			c-0.7,0.1-1.5,0.3-2.2,0.4c-0.3,0.1-0.6,0.3-0.9,0.4c-7.3,2-14.6,4-21.9,6c-6.4,2.2-12.7,4.3-19.1,6.5c-5,2.1-10,4.2-15,6.3
			C35,37.2,35,46.5,34.9,55.8c0,9.2,0,18.4,0,27.6c0.1,1.2,0.3,2.5,0.5,3.7c-0.2-1.2-0.3-2.5-0.5-3.7c0.1,5,0.1,10,0.2,15
			c0,1.3,0,2.5,0,3.8c-0.3,5.6-0.6,11.2-0.9,16.4h-9.8c-5,1.6-10.5,2.4-14.9,5c-6,3.6-10.3,9.1-9.3,16.9c0.8,6.1,4.7,9.6,10.2,11.7
			c8.7,3.5,17,2.5,24.8-2.6c8.6-4.5,11.9-11,10.7-21.5c0-8,0-16,0-24c-0.1-0.2-0.2-0.4-0.2-0.6c0-0.1,0.1-0.2,0.2-0.3
			c0-5-0.1-10-0.1-15c0-5.7,0-11.3,0-17c0.1-2.1,0.3-4.3,0.3-6.4c0.1-3.9-1.3-8.8,0.6-11.6c1.9-2.8,6.9-3.5,10.6-5.2
			c8.3-2,16.7-3.9,25-5.9c2.7-0.4,5.3-0.8,8-1.2c6-0.7,12-1.4,18-2.1c5-0.5,10-1,15-1.5h8.6c0.2,2.6,0.3,4.7,0.5,6.8v61.9
			c-1.8-0.1-2.6,0-3.4-0.2c-9.1-1.9-17.2,0.5-24.3,6.2c-5,4-8.6,9.3-7.1,16c1.5,6.6,6.4,10.3,12.9,11.8c7.6,1.8,15,0.7,21.7-3.2
			c6.1-3.6,11-8.5,11-16.1c0.1-31.1,0-62.3-0.1-93.4C143.2,19.1,143.3,11.1,143.2,3.2z M126.2,27.2c-5.7,0.9-11.4,1.7-17,2.6
			c-6,1-12,2.1-18,3.1c-3.3,0.8-6.6,1.5-10,2.3c-7.7,1.9-15.3,3.9-23,5.8c-3.8,1-7.5,1.9-11.6,2.9c-0.3-1.8-0.6-3.3-0.8-4.9
			c0.6-1.8,1.1-3.6,1.7-5.4c7-2.5,14-5,21-7.6c7.6-2.1,15.2-4.3,22.8-6.4c3.4-0.8,6.7-1.5,10.1-2.3h0c6.3-1.1,12.6-2.3,18.9-3.5
			c4-0.3,7.9-0.6,11.8-0.9c0,2.5-0.2,5,0.2,7.4C133,25.4,131.3,27.7,126.2,27.2z"/>
		<path d="M45.9,104c-0.1-0.2-0.2-0.4-0.2-0.6c0-0.1,0.1-0.2,0.2-0.3C46,103.4,46,103.7,45.9,104z"/>
	</g>
</g>
</svg>
