<?xml version="1.0" encoding="utf-8"?>
<!-- Generator: Adobe Illustrator 24.0.1, SVG Export Plug-In . SVG Version: 6.00 Build 0)  -->
<svg version="1.1" baseProfile="tiny" id="Calque_1"
	 xmlns="http://www.w3.org/2000/svg" xmlns:xlink="http://www.w3.org/1999/xlink" x="0px" y="0px" viewBox="0 0 85 2.9"
	 xml:space="preserve">
<g>
	<path fill="#2C4999" d="M0,2.9h1.8c25.9,0,51.8,0,77.6,0c0.5,0,1,0,1.5,0c0.7-0.2,1.4-0.2,2-0.5c0.4-0.2,1.4-1.2,1.7-1.6
		c0,0,0,0,0,0c0,0,0,0,0,0c0,0,0.1-0.1,0.3-0.4c0,0,0.1-0.1,0.1-0.2C85,0.1,85,0.1,85,0c-0.1,0-0.2,0.1-0.3,0.1
		c-0.1,0.1-0.2,0.1-0.3,0.2c0,0,0,0,0,0c-0.1,0.1-0.3,0.1-0.6,0.2c0,0-0.1,0-0.1,0c-0.1,0-0.2,0-0.3,0.1c-0.8,0.2-1.7,0.3-2.5,0.5
		c-0.2,0-0.3,0-0.5,0c-0.4,0-0.7,0-1.1,0H2.1c-0.4,0-0.7,0-1.1,0C0.7,1.7,0.4,2.2,0,2.9z"/>
	<path fill="#B4BFE2" d="M1,1.1c0.4,0,0.7,0,1.1,0h77.1c0.4,0,0.7,0,1.1,0C80,1,79.5,0.9,79.1,0.9c-25.6,0-51.2,0-76.7,0
		C1.9,0.9,1.5,1,1,1.1z"/>
</g>
<path fill="#2C4999" d="M79.5,2"/>
</svg>
