<?xml version="1.0" encoding="utf-8"?>
<!-- Generator: Adobe Illustrator 24.0.1, SVG Export Plug-In . SVG Version: 6.00 Build 0)  -->
<svg version="1.1" baseProfile="tiny" id="Calque_1"
	 xmlns="http://www.w3.org/2000/svg" xmlns:xlink="http://www.w3.org/1999/xlink" x="0px" y="0px" viewBox="0 0 85 2.8"
	 xml:space="preserve">
<g>
	<linearGradient id="SVGID_1_" gradientUnits="userSpaceOnUse" x1="0" y1="1.5" x2="84.9381" y2="1.5">
		<stop  offset="0" style="stop-color:#FFFB5A"/>
		<stop  offset="1" style="stop-color:#FDCB46"/>
	</linearGradient>
	<path fill="url(#SVGID_1_)" d="M0,1.5c0,0.1,0,0.1,0,0.2h6.3C8.1,1.8,10,2,11.9,2.1c2.6,0,5.3,0.1,7.9,0.1c2,0,4.1,0,6.1,0
		c2.2,0.1,4.5,0.1,6.7,0.2c2.3,0.1,4.7,0.3,7,0.4c1.7,0,3.3,0.1,5,0.1c1.1,0,2.2-0.1,3.3-0.1c2.8-0.1,5.7-0.2,8.5-0.3
		c2.1,0,4.2,0,6.3,0c1.7,0.1,3.3,0.2,5,0.3c1.5-0.1,2.9-0.1,4.4-0.2c0.7,0,1.4,0,2.2,0c0.9,0,1.8,0,2.6,0c1.5,0.1,3.1,0.1,4.6,0.2
		c0.1,0,0.1,0,0.2,0c0.7,0,1.3,0,2,0c1-0.3,1.5-1.4,1.1-2.3c-0.1-0.2-0.7-0.4-1-0.4c-0.7,0-1.4,0.2-2.1,0.3
		c-1.3-0.1-2.6-0.2-3.9-0.2c-0.2,0-0.3,0-0.4,0l0,0c-1,0-2,0-3.1,0c-0.8,0.1-1.6,0.1-2.4,0.2c-1.4,0-2.8,0-4.1,0
		c-1.7-0.1-3.3-0.1-5-0.2c-2.1,0-4.2,0-6.3,0c-1.9,0.2-3.7,0.4-5.6,0.5c-1,0.1-2,0.1-2.9,0.1c-1.1,0-2.2,0-3.3,0c-1.7,0-3.3,0-5,0
		c-2.3-0.1-4.7-0.2-7-0.4c-2.3-0.1-4.5-0.1-6.8-0.2c-2,0-4.1,0-6.1,0c-2.6,0.1-5.2,0.1-7.9,0.2c-1.9,0-3.8,0-5.7,0
		C4.8,0.3,3.4,0.3,2,0.4c-0.6,0-1.3,0.2-1.9,0.3c0,0.1,0,0.2,0,0.3c0.8,0.1,1.6,0.1,2.4,0.2v0.1C1.6,1.4,0.8,1.4,0,1.5z"/>
</g>
</svg>
