<?xml version="1.0" encoding="utf-8"?>
<!-- Generator: Adobe Illustrator 24.0.1, SVG Export Plug-In . SVG Version: 6.00 Build 0)  -->
<svg version="1.1" baseProfile="tiny" id="Calque_1"
	 xmlns="http://www.w3.org/2000/svg" xmlns:xlink="http://www.w3.org/1999/xlink" x="0px" y="0px" viewBox="0 0 85 2.9"
	 xml:space="preserve">
<g>
	<path d="M85,2.4c-0.7,0.1-1.2,0.3-1.7,0.3C71.7,2.8,60,3,48.3,2.8C34.7,2.7,21,2.3,7.4,2c-2.1,0-4.2-0.2-6.3-0.4
		C0.7,1.6,0.4,1.1,0,0.8c0.4-0.3,0.8-0.7,1.2-0.8c2-0.1,4,0,6,0C17.1,0,27,0,36.9,0.1c14.6,0.1,29.2,0.4,43.7,0.6
		C82.1,0.7,83.8,0.5,85,2.4z"/>
</g>
</svg>
